<svg xmlns="http://www.w3.org/2000/svg" xmlns:xlink="http://www.w3.org/1999/xlink" width="1024" height="1056" preserveAspectRatio="xMidYMid meet" viewBox="0 0 1024 1056" style="-ms-transform: rotate(360deg); -webkit-transform: rotate(360deg); transform: rotate(360deg);"><path d="M1023 959l-84-504q-5-49-44-84t-88-35h-71v-85q0-48-16.5-91.5t-46-75.5t-71-50.5T513 15q-64 0-115.5 32T317 133t-29 118v85h-77q-16 0-32 4.5t-30 12t-26 18.5t-21 24t-15 28t-8 30L2 958q-5 40 15 62q19 21 54 21h873q23 0 38-7t24-17q20-23 17-58zM352 251q0-72 45.5-122T513 79q35 0 65 13.5t50.5 37t32 55T672 251v85H352v-85zm595 725l-872 1q-12 0-10-11l77-504q2-12 8-23.5t15.5-20T187 405t24-5h77v73q-7 5-13 10.5T265 496t-6.5 15.5T256 528q0 27 18.5 45.5T320 592t45.5-18.5T384 528q0-36-32-55v-73h320v73q-32 19-32 55q0 27 18.5 45.5T704 592t45.5-18.5T768 528q0-36-32-55v-73h71q6 0 12 1.5t12 4t11.5 6t10 7.5t8.5 9t7 11t5 12t3 13l83 503q1 4-2 6.5t-10 2.5z" fill="#626262"/><rect x="0" y="0" width="1024" height="1056" fill="rgba(0, 0, 0, 0)" /></svg>